<svg width="45" height="38" viewBox="0 0 45 38" fill="none" xmlns="http://www.w3.org/2000/svg">
<path d="M14.3099 31.5197C13.9641 31.5197 13.7912 31.0587 13.7912 30.1327V7.26686C13.7912 6.82499 13.7028 6.61751 13.5222 6.6444L11.8662 7.05938C11.5626 7.08627 11.4128 6.78273 11.4128 6.14874V4.16225C11.4128 3.61279 11.578 3.30156 11.9084 3.2324L17.3722 1.8261C17.4145 1.81458 17.476 1.80689 17.5567 1.80689C17.8602 1.80689 18.0101 2.12965 18.0101 2.77901V30.1365C18.0101 31.0625 17.8295 31.5236 17.4721 31.5236L14.3099 31.5197ZM28.4612 31.562C27.9079 31.562 27.4315 31.5236 27.0242 31.4467C26.6169 31.3699 26.1943 31.197 25.7524 30.928C25.3105 30.6591 24.9493 30.2902 24.665 29.8214C24.3807 29.3527 24.1501 28.6956 23.9734 27.8541C23.7966 27.0127 23.7044 26.0137 23.7044 24.8533V14.2407C23.7044 13.9641 23.6276 13.8257 23.4777 13.8257H22.1944C21.8486 13.8257 21.6757 13.4953 21.6757 12.8344V11.7163C21.6757 11.04 21.8486 10.7019 22.1944 10.7019H23.4777C23.6276 10.7019 23.7044 10.5175 23.7044 10.1448L24.0771 2.09507C24.1194 1.36502 24.2961 1 24.6151 1H26.6861C27.0319 1 27.2048 1.36502 27.2048 2.09507V10.1448C27.2048 10.5175 27.2855 10.7019 27.4545 10.7019H30.0942C30.44 10.7019 30.613 11.04 30.613 11.7163V12.8344C30.613 13.4953 30.44 13.8257 30.0942 13.8257H27.4469C27.3508 13.8257 27.2855 13.8488 27.2509 13.8988C27.2163 13.9449 27.201 14.0601 27.201 14.2407V24.9186C27.201 25.7178 27.2509 26.3864 27.3546 26.9166C27.4584 27.4469 27.6082 27.8388 27.808 28.0847C28.0078 28.3306 28.2076 28.4997 28.4074 28.5804C28.6073 28.6649 28.8532 28.7033 29.1413 28.7033H30.6091C30.9818 28.7033 31.1663 28.9607 31.1663 29.4679V30.709C31.1663 31.2738 30.9665 31.5582 30.5668 31.5582L28.4612 31.562ZM36.4034 34.0442C36.7184 34.0442 36.9951 33.7867 37.2295 33.268C37.4639 32.7493 37.583 32.0154 37.583 31.0625C37.583 30.8397 37.4446 30.075 37.168 28.7648L33.1105 11.9007C33.0836 11.7086 33.0682 11.5549 33.0682 11.4435C33.0682 10.9478 33.172 10.6981 33.3794 10.6981H35.8847C36.0768 10.6981 36.2343 10.7634 36.3611 10.894C36.4879 11.0247 36.584 11.2898 36.6493 11.6894L39.3389 25.9253C39.3927 26.0905 39.4273 26.175 39.4427 26.175C39.4965 26.175 39.5272 26.0982 39.5272 25.9483L41.6366 11.7509C41.6904 11.3359 41.7788 11.0593 41.8941 10.9133C42.0094 10.7672 42.1592 10.6942 42.3398 10.6942H44.0765C44.3109 10.6942 44.43 10.9632 44.43 11.5011C44.43 11.6241 44.4147 11.7855 44.3878 11.9776L40.703 31.1624C40.4148 32.7493 40.0959 33.9635 39.7501 34.805C39.4042 35.6464 39.02 36.2189 38.5897 36.5225C38.0846 36.8489 37.4925 37.015 36.8913 36.9989H36.6839C35.5657 36.9989 34.8088 36.7031 34.4092 36.1075C34.2978 35.9846 34.244 35.6656 34.244 35.1546C34.244 34.1325 34.4092 33.6215 34.7396 33.6215C34.7665 33.6215 35.0163 33.6907 35.485 33.829C35.9615 33.975 36.265 34.0442 36.4034 34.0442ZM3.89713 31.5582C3.55132 31.5582 3.37841 31.0971 3.37841 30.1711V7.30529C3.37841 6.86342 3.29004 6.65593 3.10945 6.68283L1.4534 7.0978C1.14985 7.1247 1 6.82115 1 6.18717V4.20067C1 3.65122 1.16522 3.33999 1.49566 3.27083L6.96332 1.86069C7.00559 1.84916 7.06706 1.84147 7.14775 1.84147C7.4513 1.84147 7.60115 2.16423 7.60115 2.81359V30.1711C7.60115 31.0971 7.42056 31.5582 7.06322 31.5582H3.89713Z" fill="#507C72" stroke="#507C72" stroke-miterlimit="10"/>
</svg>
