<svg width="38" height="36" viewBox="0 0 38 36" fill="none" xmlns="http://www.w3.org/2000/svg">
<path d="M0 5.2367e-10H3.06593C7.83983 5.23671e-10 12.4182 1.89642 15.7939 5.27208C19.1695 8.64773 21.0659 13.2261 21.0659 18C21.0659 22.7739 19.1695 27.3523 15.7939 30.7279C12.4182 34.1036 7.83983 36 3.06593 36H0V28.0879H3.06593C5.74142 28.0879 8.30732 27.0251 10.1992 25.1332C12.091 23.2414 13.1538 20.6755 13.1538 18C13.1538 15.3245 12.091 12.7586 10.1992 10.8668C8.30732 8.97492 5.74142 7.91209 3.06593 7.91209H0V5.2367e-10ZM14.3411 5.2367e-10H27.0004C29.0863 -2.03694e-05 31.129 0.594228 32.8894 1.71316C34.6498 2.8321 36.055 4.42941 36.9404 6.31806C37.8258 8.20671 38.1549 10.3085 37.889 12.3774C37.6231 14.4463 36.7733 16.3966 35.439 18C36.7733 19.6034 37.6231 21.5537 37.889 23.6226C38.1549 25.6915 37.8258 27.7933 36.9404 29.6819C36.055 31.5706 34.6498 33.1679 32.8894 34.2868C31.129 35.4058 29.0863 36 27.0004 36H14.3411C17.4561 34.0488 20.0114 31.3226 21.7572 28.0879H27C27.4026 28.0879 27.8013 28.0086 28.1733 27.8545C28.5453 27.7005 28.8832 27.4746 29.1679 27.1899C29.4526 26.9052 29.6785 26.5672 29.8326 26.1953C29.9866 25.8233 30.0659 25.4246 30.0659 25.022C30.0659 24.6194 29.9866 24.2207 29.8326 23.8487C29.6785 23.4767 29.4526 23.1387 29.1679 22.854C28.8832 22.5693 28.5453 22.3435 28.1733 22.1894C27.8013 22.0353 27.4026 21.956 27 21.956H23.9341C24.4296 19.342 24.4296 16.658 23.9341 14.044H27C27.4026 14.044 27.8013 13.9647 28.1733 13.8106C28.5453 13.6565 28.8832 13.4307 29.1679 13.146C29.4526 12.8613 29.6785 12.5233 29.8326 12.1513C29.9866 11.7793 30.0659 11.3806 30.0659 10.978C30.0659 10.5754 29.9866 10.1767 29.8326 9.80474C29.6785 9.43276 29.4526 9.09478 29.1679 8.81008C28.8832 8.52538 28.5453 8.29955 28.1733 8.14547C27.8013 7.99139 27.4026 7.91209 27 7.91209H21.7572C20.0114 4.67745 17.4561 1.95123 14.3411 5.2367e-10Z" fill="#507C72"/>
</svg>
