<svg width="36" height="36" viewBox="0 0 36 36" fill="none" xmlns="http://www.w3.org/2000/svg">
<rect x="0.5" y="0.5" width="35" height="35" stroke="#507C72"/>
<path d="M30 24.629C29.1271 24.8522 28.5872 24.6386 28.1029 23.9076C27.0156 22.2703 25.8153 20.708 24.6571 19.1169C24.5078 18.9111 24.3527 18.7091 24.1594 18.4532C22.7887 20.3117 21.42 22.0817 20.1354 23.9229C19.676 24.5809 19.1936 24.8676 18.336 24.6348L23.4894 17.6836L18.692 11.4058C19.5171 11.2442 20.0876 11.3269 20.593 12.0695C21.709 13.7087 22.9399 15.2691 24.167 16.9198C25.4018 15.2748 26.6174 13.7126 27.766 12.0888C28.2273 11.4308 28.7231 11.1807 29.552 11.4231C28.9241 12.26 28.3096 13.0835 27.6913 13.9011C26.8567 15.0035 26.0373 16.1194 25.1721 17.1988C24.8638 17.5836 24.9136 17.8337 25.1893 18.1973C26.7897 20.3117 28.3709 22.4473 30 24.629ZM6.00574 17.5682C6.14358 16.8736 6.23546 16.1656 6.4269 15.4845C7.5755 11.3615 12.2848 9.64729 15.52 12.2023C17.4152 13.701 17.8861 15.8135 17.7923 18.1954H7.11031C6.94951 22.4684 10.0105 25.0484 13.9119 23.7325C15.2807 23.2707 16.0866 22.1933 16.4905 20.8466C16.6954 20.1713 17.0342 20.0654 17.666 20.2578C17.3424 21.9432 16.6092 23.3515 15.0778 24.2327C12.7806 25.5525 9.50132 25.1254 7.7765 23.2919C6.75808 22.2145 6.32544 20.8735 6.134 19.4248C6.10529 19.1939 6.04594 18.9669 6 18.7379C6.00383 18.348 6.00574 17.9581 6.00574 17.5682ZM7.12946 17.2815H16.7834C16.7203 14.1916 14.8059 11.9964 12.189 11.9772C9.31754 11.9541 7.25389 14.0974 7.12946 17.2815Z" fill="#507C72"/>
</svg>
