<svg width="26" height="36" viewBox="0 0 26 36" fill="none" xmlns="http://www.w3.org/2000/svg">
<path d="M0 6.7354C0 3.01554 3.01555 0 6.73545 0H18.2926C22.0125 0 25.028 3.01554 25.028 6.7354C25.028 9.09084 23.8189 11.1639 21.9875 12.3678C23.8189 13.5716 25.028 15.6447 25.028 18.0001C25.028 21.72 22.0125 24.7356 18.2926 24.7356H18.1463C16.4024 24.7356 14.8133 24.0728 13.6171 22.9854V29.1914C13.6171 32.9609 10.5228 36 6.77173 36C3.06113 36 0 32.9936 0 29.2646C0 26.9092 1.20899 24.8363 3.04026 23.6324C1.20899 22.4285 0 20.3555 0 18.0001C0 15.6447 1.20909 13.5716 3.04049 12.3678C1.20909 11.1639 0 9.09084 0 6.7354ZM11.4109 13.471H6.73545C4.23402 13.471 2.20625 15.4988 2.20625 18.0001C2.20625 20.4919 4.21838 22.5136 6.70648 22.5292C6.71611 22.5292 6.72574 22.5292 6.73545 22.5292H11.4109V13.471ZM13.6171 18.0001C13.6171 20.5015 15.6449 22.5293 18.1463 22.5293H18.2926C20.794 22.5293 22.8217 20.5015 22.8217 18.0001C22.8217 15.4988 20.794 13.471 18.2926 13.471H18.1463C15.6449 13.471 13.6171 15.4988 13.6171 18.0001ZM6.73545 24.7356C6.72574 24.7356 6.71611 24.7355 6.70648 24.7355C4.21838 24.7511 2.20625 26.7728 2.20625 29.2646C2.20625 31.7568 4.26111 33.7937 6.77173 33.7937C9.3228 33.7937 11.4109 31.724 11.4109 29.1914V24.7356H6.73545ZM6.73545 2.20625C4.23402 2.20625 2.20625 4.23403 2.20625 6.7354C2.20625 9.23681 4.23402 11.2646 6.73545 11.2646H11.4109V2.20625H6.73545ZM13.6171 11.2646H18.2926C20.794 11.2646 22.8217 9.23681 22.8217 6.7354C22.8217 4.23403 20.794 2.20625 18.2926 2.20625H13.6171V11.2646Z" fill="#507C72"/>
</svg>
