<svg width="37" height="36" viewBox="0 0 37 36" fill="none" xmlns="http://www.w3.org/2000/svg">
<path d="M35.6922 16.3969L19.9781 0.678761C19.5431 0.244137 18.9534 0 18.3384 0C17.7235 0 17.1337 0.244137 16.6987 0.678761L13.4313 3.94373L17.5714 8.0838C19.7459 7.34932 21.8047 9.43141 21.0582 11.5939L25.0488 15.5845C27.7994 14.6362 29.9651 18.0756 27.8991 20.14C25.7704 22.2687 22.2571 19.9094 23.399 17.1394L19.6744 13.4196V23.2113C21.7075 24.219 21.4632 26.5743 20.404 27.631C19.8866 28.1482 19.1849 28.4387 18.4533 28.4387C17.7218 28.4387 17.0201 28.1482 16.5026 27.631C15.0907 26.2167 15.6131 23.8614 17.4067 23.1309V13.2468C15.7352 12.563 15.4299 10.7766 15.9088 9.6307L11.8274 5.54447L1.0497 16.3238C0.614878 16.7587 0.370605 17.3485 0.370605 17.9635C0.370605 18.5785 0.614878 19.1683 1.0497 19.6032L16.7686 35.3213C17.2035 35.7559 17.7931 36 18.4079 36C19.0227 36 19.6124 35.7559 20.0473 35.3213L35.6922 19.6763C36.1271 19.2414 36.3713 18.6516 36.3713 18.0366C36.3713 17.4216 36.1271 16.8318 35.6922 16.3969V16.3969Z" fill="#507C72"/>
</svg>
