<svg width="21" height="36" viewBox="0 0 21 36" fill="none" xmlns="http://www.w3.org/2000/svg">
<path d="M4.269 36C4.269 36 4.269 36 4.2675 36C1.911 36 0 34.089 0 31.7325C0 31.335 0.054 30.9495 0.156 30.5835L0.1485 30.6135L0.126 30.6L0.261 30.261L10.761 3.0105C10.8165 2.7285 10.848 2.403 10.848 2.07C10.848 1.7325 10.815 1.401 10.7535 1.0815L10.758 1.1145C10.749 1.071 10.743 1.0215 10.743 0.9705C10.743 0.8925 10.755 0.816 10.779 0.7455L10.7775 0.75L10.7985 0.6975V0.687L10.812 0.6585C10.974 0.2205 11.487 0 12.324 0C13.7235 0.072 15.03 0.381 16.2345 0.888L16.158 0.8595C17.322 1.2945 18.3285 1.8375 19.2465 2.499L19.2075 2.472C20.1075 3.147 20.4705 3.753 20.268 4.272L20.2215 4.3395L20.1975 4.362C20.133 4.4565 20.0595 4.539 19.974 4.608L19.9725 4.6095C19.479 5.01 19.062 5.478 18.726 6.003L18.7125 6.027L8.1105 33.6585L8.0865 33.6495C7.359 35.0445 5.9265 35.9835 4.2735 35.991H4.263L4.269 36ZM0.9885 30.423L0.9585 30.498C0.8205 30.861 0.741 31.2825 0.741 31.7205C0.741 33.2175 1.6695 34.497 2.9805 35.016L3.0045 35.025C3.372 35.172 3.7995 35.256 4.2465 35.256H4.2615H4.26H4.2675C5.754 35.256 7.0245 34.3305 7.533 33.024L7.5405 33L7.581 32.9085L18.0195 5.7735C18.42 5.109 18.909 4.5435 19.4775 4.0725L19.488 4.0635L19.512 4.0395C19.53 4.017 19.542 4.017 19.542 3.9945C19.542 3.9045 19.4505 3.5895 18.7065 3.027C17.886 2.436 16.944 1.929 15.939 1.554L15.8565 1.527C14.811 1.089 13.599 0.7995 12.3315 0.7185L12.2985 0.717C11.7135 0.717 11.5125 0.84 11.481 0.906V0.966C11.535 1.269 11.5665 1.617 11.5665 1.971C11.5665 2.4195 11.517 2.8575 11.4225 3.2775L11.43 3.2385L0.987 30.4185L0.9885 30.423ZM14.4135 13.1625C13.6335 14.058 12.7215 14.811 11.7 15.399L11.649 15.426C10.23 15.804 9.072 16.191 7.944 16.6395L8.169 16.56C7.452 16.9815 6.8565 17.535 6.399 18.192L6.387 18.21L1.5645 30.75C1.467 31.0275 1.4115 31.347 1.4115 31.68C1.4115 32.901 2.166 33.945 3.2325 34.3725L3.252 34.38C3.549 34.4955 3.8925 34.563 4.251 34.563C5.43 34.563 6.4395 33.8415 6.8625 32.8155L6.87 32.796L14.4135 13.1625ZM7.0095 28.14C7.0455 28.122 7.089 28.113 7.134 28.113C7.2555 28.113 7.359 28.185 7.407 28.2885L7.4085 28.29C7.4235 28.326 7.434 28.3665 7.434 28.41C7.434 28.578 7.299 28.713 7.131 28.713C7.0065 28.713 6.9 28.638 6.8535 28.5315L6.852 28.53C6.837 28.4955 6.8295 28.4565 6.8295 28.4145C6.8295 28.2915 6.903 28.1865 7.008 28.14L7.0095 28.1385V28.14ZM5.4885 25.44C5.436 25.4625 5.376 25.476 5.3115 25.476C5.0625 25.476 4.8615 25.275 4.8615 25.026C4.8615 24.777 5.0625 24.576 5.3115 24.576C5.493 24.576 5.649 24.6825 5.7195 24.837L5.721 24.84C5.748 24.894 5.7645 24.9585 5.7645 25.0275C5.7645 25.209 5.6505 25.3635 5.4915 25.4235L5.4885 25.425V25.44ZM5.9175 23.79C5.8725 23.688 5.8455 23.568 5.8455 23.4435C5.8455 23.0955 6.048 22.7955 6.342 22.656L6.348 22.6545C6.4485 22.6095 6.567 22.5825 6.6915 22.5825C7.035 22.5825 7.332 22.785 7.47 23.076L7.4715 23.0805C7.512 23.1765 7.5345 23.2875 7.5345 23.406C7.5345 23.883 7.1475 24.27 6.6705 24.27C6.333 24.27 6.0405 24.0765 5.898 23.7945L5.8965 23.79H5.916H5.9175ZM9.5595 20.4C9.6135 20.376 9.675 20.361 9.741 20.361C9.99 20.361 10.191 20.562 10.191 20.811C10.191 21.06 9.99 21.261 9.741 21.261C9.558 21.261 9.399 21.1515 9.33 20.9925L9.3285 20.9895C9.3045 20.937 9.291 20.8755 9.291 20.8095C9.291 20.6265 9.4005 20.469 9.5565 20.3985L9.5595 20.397V20.4ZM7.6245 18.3375C7.6605 18.321 7.7025 18.312 7.746 18.312C7.911 18.312 8.046 18.447 8.046 18.612C8.046 18.777 7.911 18.912 7.746 18.912C7.626 18.912 7.5225 18.8415 7.4745 18.741L7.473 18.7395C7.455 18.702 7.4445 18.6585 7.4445 18.6135C7.4445 18.492 7.5165 18.387 7.62 18.3405L7.6215 18.339L7.6245 18.3375ZM12.681 1.71C12.831 1.3185 14.1705 1.467 15.6735 2.049C17.1765 2.631 18.267 3.4125 18.1185 3.804C17.97 4.1955 16.6185 4.05 15.1185 3.4725C13.6185 2.895 12.5175 2.1075 12.6705 1.7085L12.681 1.71Z" fill="#507C72"/>
</svg>
