<svg width="37" height="36" viewBox="0 0 37 36" fill="none" xmlns="http://www.w3.org/2000/svg">
<path fill-rule="evenodd" clip-rule="evenodd" d="M23.7149 9.20115C22.9453 6.80473 21.7107 4.68378 19.971 2.85868C19.5312 2.39701 19.0424 1.97406 18.7356 1.39978C18.5417 1.03624 18.357 0.667675 18.1681 0.301769L18.0481 0L18.0147 0.118816C17.999 0.715852 17.6609 1.12048 17.24 1.4985C16.7659 1.92352 16.325 2.38519 15.8698 2.83119L14.47 4.67225L13.3383 6.7536L12.5814 8.79741L12.5586 8.82904C12.1422 10.1972 11.9368 11.6041 11.836 13.0245C11.7978 13.5586 11.8416 14.1001 11.8714 14.6368C11.9143 15.4041 12.0476 16.1581 12.2474 16.9008C12.9736 19.5981 14.4476 21.8353 16.463 23.7363C16.8372 24.0895 17.2418 24.4108 17.6322 24.7465L17.8051 25.34L17.9659 26.261L18.0428 27.2225C18.0419 27.4175 18.0339 27.6135 18.0454 27.808C18.0487 27.8579 18.1137 27.904 18.1504 27.9519L18.4767 28.0666L18.8163 28.1987L18.758 27.3442L18.7554 26.5025L18.8727 25.2203L18.9578 24.9413L19.2017 24.5095C19.5026 24.2677 19.825 24.0478 20.099 23.7786C20.5947 23.2918 21.0894 22.7982 21.5331 22.2647C22.1085 21.5728 22.6039 20.8176 23.0017 20.0078C23.2674 19.466 23.5181 18.9133 23.7253 18.3473C23.9079 17.8484 24.0211 17.3238 24.1651 16.8104L24.2029 16.6996C24.4999 15.314 24.5499 13.9142 24.4408 12.5055C24.353 11.3703 24.0861 10.2746 23.7149 9.20115V9.20115ZM17.8332 24.0605C17.8787 23.8327 17.9352 23.606 17.9763 23.3772C17.9352 23.606 17.879 23.8327 17.8332 24.0605ZM18.8432 24.2178L18.6522 23.7996L18.8432 24.2178L19.1236 24.4575L18.8432 24.2178ZM30.7112 29.5163C30.467 29.0485 30.1088 28.6932 29.6353 28.46C29.2387 28.2649 28.8122 28.1792 28.3736 28.1668C28.0449 28.1573 27.7151 28.1742 27.3858 28.1783C27.0935 28.1819 26.8009 28.1869 26.5086 28.1842C26.1648 28.1807 25.8211 28.1703 25.4773 28.1606C25.4203 28.1588 25.3798 28.1703 25.3532 28.2283C25.3115 28.3184 25.2622 28.4053 25.211 28.504L25.2684 28.5223C25.4389 28.5525 25.6104 28.5782 25.78 28.6122C25.9981 28.6556 26.0963 28.781 26.1063 28.9648C26.1211 29.2267 26.127 29.4891 26.1261 29.7516C26.1217 30.7902 26.1143 31.8288 26.1066 32.8671C26.106 32.9357 26.1048 33.0072 26.0862 33.0716C26.0646 33.1461 26.0413 33.2425 25.9857 33.2791C25.8897 33.343 25.7705 33.3861 25.6562 33.4047C25.4904 33.4319 25.4626 33.4393 25.4108 33.6025L25.3884 33.6841C25.3636 33.773 25.3769 33.7905 25.4697 33.7913C26.0023 33.7973 26.5346 33.8088 27.0669 33.807C27.5525 33.8052 28.0381 33.8348 28.5219 33.7435C28.9792 33.6574 29.406 33.5067 29.7955 33.2516C30.3009 32.9203 30.6645 32.4776 30.8563 31.8997C31.0112 31.433 31.0457 30.9569 30.9931 30.4689C30.9574 30.1323 30.8669 29.8151 30.7112 29.5163V29.5163ZM29.7781 32.3718C29.4932 32.902 29.0681 33.2561 28.4608 33.3495C28.0804 33.4077 27.6994 33.3909 27.3367 33.2469C27.1071 33.1559 27.0217 32.9576 27.0146 32.7232C27.0078 32.4935 27.0051 32.2636 27.0048 32.0339C27.0036 31.2259 27.0036 30.4178 27.0048 29.61C27.0054 29.3555 27.0098 29.1005 27.014 28.8457C27.0169 28.6666 27.0545 28.6066 27.2291 28.5921C27.9964 28.5277 28.7285 28.6104 29.3365 29.1504C29.7125 29.4844 29.9264 29.9103 30.0154 30.3995C30.0524 30.6034 30.0636 30.8121 30.0866 31.019C30.068 31.4913 30.0042 31.9509 29.7781 32.3718ZM36.2181 31.4966C36.0668 31.1283 35.7801 30.8975 35.4198 30.7497C35.2968 30.6992 35.17 30.6575 35.0373 30.6084L35.0837 30.5789C35.2271 30.487 35.3867 30.4128 35.5102 30.2996C35.8105 30.0244 35.9352 29.6783 35.8767 29.2672C35.8211 28.8761 35.6261 28.5891 35.2776 28.4029C34.9614 28.2345 34.6203 28.173 34.2674 28.1733C33.6567 28.1739 33.0458 28.183 32.4352 28.1842C32.2247 28.1845 32.0143 28.1689 31.8039 28.1659C31.7631 28.1653 31.7025 28.1757 31.685 28.2028C31.6369 28.2767 31.6049 28.3619 31.5707 28.444C31.5509 28.4919 31.5704 28.5182 31.625 28.5253C31.7719 28.5454 31.9185 28.5705 32.0657 28.5924C32.2691 28.6228 32.3675 28.7287 32.3799 28.9335L32.3826 29.055C32.3829 29.6919 32.3849 30.3288 32.3823 30.9658C32.379 31.6015 32.3719 32.2379 32.3642 32.8739C32.3634 32.954 32.3524 33.0344 32.3409 33.1139C32.3235 33.2339 32.2593 33.3167 32.1364 33.3427L31.7885 33.4112C31.7474 33.4195 31.688 33.4183 31.6712 33.4438C31.6073 33.5392 31.5559 33.6436 31.563 33.7695L31.5987 33.7792L32.7671 33.8079L33.0015 33.807C33.4058 33.8023 33.8107 33.8103 34.2145 33.7896C34.6516 33.7677 35.0621 33.6379 35.4416 33.4148C35.8457 33.1769 36.1566 32.8633 36.2671 32.3916C36.3381 32.0904 36.3384 31.7874 36.2181 31.4966V31.4966ZM33.2498 28.783C33.2515 28.6551 33.308 28.5995 33.4351 28.5962C33.7481 28.5877 34.059 28.5894 34.3611 28.6973C34.7518 28.8368 34.9921 29.1738 34.9877 29.5855C34.9856 29.7436 34.988 29.9003 34.9297 30.0522C34.8148 30.3513 34.5943 30.5091 34.2816 30.5399C34.1184 30.5564 33.9538 30.5582 33.8084 30.5659L33.323 30.5446C33.2586 30.5422 33.2305 30.5138 33.2308 30.4476L33.2498 28.783V28.783ZM35.2613 32.7714C35.105 33.1115 34.8201 33.2904 34.4633 33.3524C34.1781 33.4021 33.8905 33.3876 33.6086 33.3149C33.3999 33.2614 33.3148 33.0938 33.2731 32.9079C33.245 32.7835 33.2497 32.6354 33.2474 32.5059C33.2435 32.3061 33.2465 31.8915 33.2465 31.8915H33.2424C33.2424 31.5959 33.2432 31.3399 33.2415 31.0565C33.2412 30.9953 33.2515 30.9649 33.3263 30.9672C33.5917 30.9752 33.858 30.9797 34.1234 30.99C34.3608 30.9992 34.583 31.0695 34.792 31.1821C35.11 31.3535 35.3015 31.616 35.3542 31.9766C35.3943 32.25 35.3772 32.5189 35.2613 32.7714V32.7714ZM6.12275 33.09L6.12837 31.483C6.12925 31.2412 6.09852 31.0042 6.01931 30.7748C5.80088 30.1432 5.19853 29.8556 4.57135 30.0823C4.28613 30.1855 4.03047 30.3418 3.78633 30.5192C3.64417 30.6226 3.64417 30.6226 3.54131 30.4751C3.25018 30.0578 2.83433 29.915 2.3502 30.069C2.0372 30.1683 1.76351 30.3383 1.5043 30.5357C1.48006 30.554 1.43129 30.5744 1.41681 30.5635C1.39257 30.5455 1.37573 30.5026 1.37632 30.4704L1.39405 30.1849C1.39553 30.1249 1.384 30.0646 1.37809 30.0016C1.26105 30.0421 1.16765 30.0826 1.06982 30.1063C0.76746 30.1802 0.463031 30.2481 0.158898 30.3176C0.0853027 30.3344 0.00756982 30.3566 0.000476323 30.4411C-0.00691273 30.5242 0.0731846 30.5381 0.135253 30.5629C0.265891 30.6155 0.395643 30.6714 0.524804 30.7281C0.633275 30.776 0.673767 30.8626 0.673176 30.9791C0.671107 31.4771 0.674358 31.9745 0.671402 32.4725C0.67022 32.675 0.660762 32.8772 0.6516 33.0796C0.643324 33.259 0.582143 33.3341 0.408352 33.3793C0.316137 33.4036 0.222444 33.4198 0.129637 33.4417C0.109243 33.4464 0.0743668 33.4594 0.0740713 33.4695C0.070229 33.5573 0.0655 33.6471 0.0802781 33.7325C0.0832337 33.7479 0.17604 33.7479 0.227468 33.7538L0.262049 33.7517C0.62027 33.7464 0.978492 33.7408 1.33701 33.737C1.52706 33.7349 1.71681 33.7367 1.92311 33.7367L1.94528 33.45C1.82705 33.4284 1.72154 33.4121 1.6175 33.3894C1.45523 33.3539 1.38607 33.2679 1.38193 33.1042L1.37898 32.8698C1.37721 32.2618 1.37484 31.6541 1.37484 31.0462C1.37484 30.9578 1.41149 30.8877 1.48922 30.8348C1.65385 30.7237 1.82764 30.6353 2.02005 30.586C2.42556 30.4822 2.77728 30.6265 2.93334 30.9714C2.9827 31.0801 3.02142 31.2004 3.03235 31.3187C3.08969 31.9281 3.06487 32.5382 3.03028 33.1476C3.0229 33.2791 2.96112 33.3453 2.83137 33.3776L2.52635 33.442C2.50182 33.4482 2.46606 33.4316 2.46428 33.452C2.45749 33.5363 2.46133 33.6654 2.46133 33.6654H2.53404L3.46269 33.6959C3.71717 33.6953 3.97195 33.726 4.22613 33.7325C4.27165 33.7334 4.31214 33.7402 4.3148 33.6876C4.31894 33.6042 4.31539 33.5259 4.31155 33.4426L4.26307 33.434L4.0015 33.3752C3.82505 33.3335 3.76417 33.2664 3.76357 33.0879C3.76151 32.6478 3.76742 32.208 3.76357 31.7682C3.76151 31.5167 3.75175 31.2652 3.7355 31.0142C3.73106 30.9474 3.74141 30.9037 3.79461 30.8662C3.95126 30.7544 4.12061 30.6684 4.30652 30.6194C4.87844 30.4686 5.34661 30.7822 5.37616 31.3719C5.40513 31.9405 5.39301 32.5113 5.38858 33.0811C5.3871 33.2794 5.32148 33.3394 5.12612 33.3926L5.05873 33.4101C4.85863 33.4579 4.86041 33.4579 4.87223 33.6705C4.87607 33.737 4.8944 33.7541 4.96533 33.7523C5.37291 33.7432 5.78049 33.7408 6.18807 33.7373C6.35477 33.7358 6.52147 33.7373 6.70294 33.7373L6.73989 33.4606C6.58058 33.4183 6.43368 33.387 6.29181 33.3406C6.1665 33.298 6.12216 33.2224 6.12275 33.09V33.09ZM20.1587 30.6542C20.3266 30.4985 20.3278 30.2928 20.2808 30.0643C20.1478 30.2035 19.9988 30.2676 19.8289 30.2798C19.601 30.296 19.3772 30.2762 19.165 30.1855C18.591 29.939 18.0259 29.9564 17.4626 30.2269C16.9888 30.4538 16.6974 30.8076 16.6681 31.3441C16.6495 31.6878 16.7139 32.0132 16.9433 32.2866C17.0807 32.4504 17.2572 32.5565 17.4561 32.6298C17.5418 32.6614 17.5483 32.7022 17.4765 32.7569C17.4239 32.7974 17.368 32.834 17.3119 32.8692C17.1919 32.9446 17.071 33.019 16.9495 33.092C16.8783 33.1352 16.854 33.1902 16.8774 33.2744C16.9457 33.5221 17.1215 33.6651 17.3414 33.7695L17.4215 33.8253L17.3515 33.8954C17.136 34.0701 16.912 34.235 16.7057 34.4203C16.5325 34.5761 16.4766 34.7847 16.5289 35.015C16.6344 35.4746 16.9391 35.7589 17.3716 35.8895C18.1273 36.1183 18.837 35.9871 19.4839 35.5393C19.8676 35.2736 20.1427 34.9278 20.2264 34.4519C20.3201 33.9172 20.023 33.4532 19.4913 33.3575C19.1396 33.2936 18.7796 33.2753 18.4238 33.2345C18.2577 33.2156 18.0892 33.2044 17.9275 33.1662C17.7901 33.1337 17.7218 33.0217 17.7345 32.9123C17.7472 32.8048 17.8616 32.7046 17.9925 32.6942C18.2562 32.6729 18.5145 32.6318 18.7574 32.5207C19.4012 32.2263 19.7 31.7109 19.6252 31.0169C19.6155 30.9235 19.5942 30.8313 19.575 30.7225C19.781 30.7571 19.9917 30.8094 20.1587 30.6542V30.6542ZM18.2053 33.9105C18.4672 33.9181 18.7651 33.9344 19.053 34.0186C19.3063 34.0925 19.5147 34.222 19.5762 34.5048C19.6503 34.8465 19.486 35.1864 19.1553 35.369C18.8455 35.5399 18.5092 35.5541 18.1681 35.5189C17.8761 35.4888 17.6133 35.3877 17.4029 35.1719C17.1256 34.8879 17.1242 34.4948 17.4017 34.2116C17.6497 33.9586 17.7824 33.9063 18.2053 33.9105V33.9105ZM18.8606 31.8527C18.7081 32.3407 18.2642 32.4081 17.9163 32.2521C17.6198 32.1193 17.4907 31.8581 17.423 31.5598C17.3967 31.4452 17.3905 31.3261 17.3751 31.2087C17.3813 31.0405 17.4091 30.8792 17.4815 30.7278C17.7035 30.2617 18.2488 30.2895 18.5506 30.5005C18.68 30.591 18.7702 30.7139 18.8266 30.8597C18.9519 31.186 18.9646 31.5185 18.8606 31.8527ZM16.0912 33.4083C15.9863 33.3914 15.8807 33.3696 15.7788 33.3385C15.5991 33.2836 15.5772 33.2499 15.5751 33.0598C15.5698 32.5302 15.5663 32.0005 15.5604 31.4712C15.5574 31.233 15.529 30.998 15.456 30.7704C15.2639 30.1704 14.6754 29.8482 14.0867 30.0253C13.7604 30.1237 13.4802 30.3067 13.2192 30.5215L13.124 30.5945L13.1243 30.4967C13.1305 30.3841 13.1427 30.2715 13.1418 30.1589C13.1412 30.1001 13.1187 30.041 13.1078 29.9892C12.8852 30.0563 12.6857 30.1237 12.4821 30.1751C12.2778 30.2266 12.0695 30.2614 11.8629 30.3034C11.7603 30.3241 11.6849 30.3862 11.6867 30.4568C11.6894 30.5564 11.7718 30.5756 11.844 30.6055C11.9746 30.659 12.1049 30.7131 12.2341 30.7704C12.3263 30.8115 12.3638 30.8877 12.363 30.9867C12.3565 31.6751 12.3523 32.3638 12.3423 33.0524C12.3393 33.27 12.2843 33.3273 12.0704 33.3752L11.977 33.3938C11.7789 33.4278 11.7733 33.4358 11.7869 33.6447L11.7881 33.6793C11.7857 33.7597 11.8209 33.7857 11.9037 33.7848C12.4298 33.7786 12.9562 33.7757 13.4823 33.7777C13.7078 33.7786 13.732 33.7609 13.7273 33.5292L13.7166 33.4296C13.5878 33.408 13.4645 33.3923 13.3439 33.3657C13.2177 33.3377 13.1725 33.2859 13.1607 33.1577C13.1497 33.0403 13.1462 32.9212 13.145 32.803C13.1391 32.2618 13.1344 31.7206 13.1317 31.1798C13.1311 31.0435 13.1562 30.917 13.2816 30.8292C13.4716 30.6965 13.6797 30.6197 13.9096 30.604C14.379 30.5718 14.7357 30.8499 14.7612 31.3178C14.7925 31.895 14.783 32.4743 14.7904 33.0527C14.791 33.0959 14.7833 33.1393 14.7774 33.1822C14.7662 33.2667 14.7248 33.3303 14.6391 33.3521C14.5554 33.374 14.4706 33.3935 14.3852 33.4065C14.2578 33.4254 14.2551 33.4245 14.2454 33.5531L14.2486 33.6397C14.2637 33.7893 14.264 33.7848 14.4153 33.7834C14.9243 33.7792 15.433 33.7766 15.9416 33.7772C16.1544 33.7777 16.1695 33.7677 16.1713 33.5484L16.1707 33.4964C16.1739 33.4402 16.1488 33.4175 16.0912 33.4083V33.4083ZM23.2 30.0616C22.6666 29.9313 22.1605 30.0282 21.68 30.2768C21.213 30.5183 20.9009 30.8916 20.782 31.407C20.662 31.9281 20.7194 32.4365 20.9496 32.9203C21.0995 33.2345 21.33 33.4775 21.6439 33.6353C22.3787 34.0053 23.2775 33.8374 23.8538 33.3424C24.3087 32.9519 24.4757 32.432 24.4857 31.7886C24.4795 31.7242 24.4733 31.6 24.4562 31.4771C24.3595 30.7766 23.8745 30.2266 23.2 30.0616V30.0616ZM23.6041 32.7675C23.4625 33.3249 22.9804 33.5726 22.4366 33.3811C22.1591 33.2836 21.9516 33.0971 21.8121 32.8449C21.4911 32.2656 21.4293 31.6497 21.612 31.0178C21.7338 30.5969 22.0802 30.3667 22.4922 30.3956C22.8604 30.4213 23.1436 30.5981 23.3514 30.8978C23.5704 31.214 23.6549 31.5737 23.6774 31.9515C23.6812 32.0121 23.678 32.0726 23.678 32.1335L23.704 32.1365C23.6715 32.3472 23.6561 32.5621 23.6041 32.7675V32.7675ZM9.7824 30.0525C9.22113 29.9242 8.69533 30.051 8.20824 30.3362C7.78706 30.5827 7.51485 30.951 7.41052 31.4322C7.31269 31.8817 7.35259 32.3236 7.51189 32.7542C7.60884 33.0167 7.75573 33.2475 7.9712 33.4275C8.42489 33.8061 8.95513 33.9019 9.51935 33.7964C9.99698 33.7068 10.4167 33.4946 10.7217 33.0977C11.0072 32.7264 11.116 32.3002 11.1272 31.8383C11.1104 31.692 11.1062 31.543 11.0752 31.4002C10.9209 30.6876 10.5042 30.2171 9.7824 30.0525V30.0525ZM10.2402 32.7657C10.1034 33.3202 9.61364 33.5741 9.07365 33.3826C8.72695 33.2593 8.50114 33.0054 8.35839 32.68C8.12962 32.1572 8.08292 31.613 8.231 31.0615C8.34449 30.6398 8.68646 30.3291 9.2099 30.4036C9.53118 30.4491 9.78181 30.6132 9.96861 30.8741C10.221 31.2262 10.3041 31.6293 10.3156 32.0528V32.1394L10.3369 32.1427C10.3058 32.3508 10.2905 32.5624 10.2402 32.7657V32.7657Z" fill="#507C72"/>
</svg>
