<svg width="32" height="36" viewBox="0 0 32 36" fill="none" xmlns="http://www.w3.org/2000/svg">
<path d="M15.9516 36C15.473 36 14.9872 35.8714 14.5657 35.6285L10.1582 33.0211C9.50094 32.6497 9.8224 32.5211 10.0367 32.4496C10.9154 32.1425 11.094 32.0782 12.0298 31.5424C12.1298 31.4853 12.2584 31.5067 12.3584 31.571L15.7444 33.5783C15.8659 33.6498 16.0373 33.6498 16.1516 33.5783L29.3458 25.9633C29.4672 25.8919 29.5458 25.749 29.5458 25.6061V10.376C29.5458 10.226 29.4672 10.0903 29.3386 10.0117L16.1516 2.40381C16.0302 2.33237 15.8659 2.33237 15.7444 2.40381L2.56454 10.0189C2.43596 10.0903 2.35738 10.2332 2.35738 10.3832V25.6061C2.35738 25.749 2.43596 25.8919 2.56454 25.9561L6.17918 28.0421C8.14367 29.0207 9.34378 27.8706 9.34378 26.7062V11.6762C9.34378 11.4619 9.51523 11.2975 9.72954 11.2975H11.4011C11.6083 11.2975 11.7869 11.4619 11.7869 11.6762V26.7134C11.7869 29.3279 10.3582 30.8281 7.87935 30.8281C7.11499 30.8281 6.51493 30.8281 4.84334 29.9994L1.38585 28.0064C0.528624 27.5134 0 26.5919 0 25.599V10.376C0 9.39022 0.528624 8.46155 1.38585 7.96865L14.5657 0.353607C15.4015 -0.117869 16.5088 -0.117869 17.3374 0.353607L30.5316 7.97579C31.3888 8.4687 31.9175 9.39022 31.9175 10.3832V25.6061C31.9175 26.5919 31.3888 27.5134 30.5316 28.0135L17.3374 35.6285C16.916 35.8714 16.4373 36 15.9516 36ZM26.6026 20.9914C26.6026 18.1411 24.6739 17.3839 20.6235 16.8481C16.5231 16.3052 16.1087 16.0266 16.1087 15.0694C16.1087 14.2764 16.4588 13.2192 19.4948 13.2192C22.2022 13.2192 23.2023 13.8049 23.6166 15.6337C23.6523 15.8051 23.8095 15.9337 23.9881 15.9337H25.7025C25.8097 15.9337 25.9097 15.8909 25.9811 15.8123C26.0526 15.7337 26.0883 15.6266 26.0812 15.5194C25.8168 12.3691 23.7238 10.9047 19.4948 10.9047C15.7301 10.9047 13.4871 12.4905 13.4871 15.1551C13.4871 18.0411 15.723 18.8412 19.3305 19.1983C23.6523 19.6198 23.9881 20.2556 23.9881 21.1057C23.9881 22.5772 22.8023 23.2059 20.0234 23.2059C16.5302 23.2059 15.7659 22.3272 15.5087 20.5913C15.4801 20.4056 15.3229 20.2699 15.1301 20.2699H13.4228C13.2085 20.2699 13.0442 20.4413 13.0442 20.6485C13.0442 22.8701 14.2514 25.5204 20.0306 25.5204C24.2024 25.5132 26.6026 23.8631 26.6026 20.9914V20.9914Z" fill="#507C72"/>
</svg>
