<svg width="37" height="36" viewBox="0 0 37 36" fill="none" xmlns="http://www.w3.org/2000/svg">
<path fill-rule="evenodd" clip-rule="evenodd" d="M17.8836 28.4076C18.4127 28.8452 19.033 29.0318 19.7026 29.0663C19.9795 29.0808 20.2644 29.0672 20.5369 29.0176C20.9691 28.9391 21.4002 28.8405 21.8206 28.7138C22.6768 28.4555 23.4167 28.0091 23.9691 27.2881C24.2838 26.8771 24.5421 26.4328 24.7081 25.9415C24.845 25.5361 24.9738 25.1266 25.0762 24.7118C25.1571 24.385 25.1973 24.0475 25.2463 23.7136C25.279 23.4928 25.2988 23.2696 25.3192 23.0467C25.3523 22.685 25.3868 22.3239 25.4107 21.9614C25.4276 21.7093 25.427 21.4559 25.4367 21.2035C25.4399 21.1264 25.4524 21.05 25.4597 20.9735C25.4659 20.9024 25.502 20.8779 25.5746 20.879C25.8297 20.8829 26.0853 20.8894 26.3401 20.8779C26.6256 20.8652 26.9132 20.8528 27.1943 20.8058C27.594 20.7388 27.9917 20.6541 28.3835 20.5519C28.8464 20.4306 29.2713 20.2136 29.6805 19.9667C30.1564 19.6789 30.591 19.3414 30.9426 18.9065C31.2494 18.528 31.3946 18.0893 31.3205 17.6107C31.2131 16.9154 30.6288 16.4599 29.9494 16.4289C29.7032 16.4177 29.4534 16.4437 29.2084 16.4747C28.9117 16.5124 28.6194 16.5792 28.3236 16.6232C28.1192 16.6539 27.9123 16.6674 27.7086 16.6887L27.703 16.6621C28.0838 15.9426 28.4806 15.2314 28.8408 14.5022C29.1175 13.9424 29.3536 13.3628 29.5978 12.7871C30.0023 11.8341 30.325 10.8518 30.5925 9.85303C30.8484 8.89704 31.0675 7.93072 31.1369 6.93872C31.1646 6.5428 31.1838 6.14511 31.1812 5.74861C31.1794 5.43211 31.1452 5.11532 31.1136 4.8C31.0775 4.43863 30.9683 4.09615 30.8171 3.76666C30.6182 3.33207 30.309 2.97572 29.984 2.63737C29.7239 2.36634 29.4375 2.11952 29.1538 1.8727C28.749 1.52078 28.2937 1.23942 27.8214 0.989938C27.2843 0.706508 26.7201 0.484488 26.1314 0.334506C25.7753 0.243868 25.4116 0.163858 25.0514 0.0921146C24.9227 0.0661336 24.7928 0 24.6632 0H22.2221C22.1339 0 22.0465 0.057867 21.9576 0.0676099C21.3733 0.132858 20.7958 0.249182 20.2349 0.423373C20.0253 0.488031 19.8339 0.45024 19.6347 0.43164C19.4817 0.417469 19.3314 0.378202 19.1785 0.370526C18.5966 0.341592 18.0141 0.299668 17.4319 0.305868C16.8745 0.311773 16.3227 0.403888 15.7833 0.556822C15.3318 0.685546 14.8899 0.841728 14.4848 1.0794C14.3118 1.18096 14.1742 1.16177 13.995 1.1104C13.3924 0.936499 12.786 0.773527 12.1745 0.636831C11.7934 0.551507 11.401 0.508402 11.0116 0.46825C10.6381 0.429278 10.2626 0.406249 9.88703 0.398278C9.52035 0.390307 9.1513 0.390602 8.78609 0.423078C8.20476 0.474745 7.63465 0.592841 7.08019 0.783565C6.46462 0.995547 5.90012 1.3023 5.39142 1.70501C4.87475 2.11391 4.46024 2.61257 4.1275 3.18268C3.77646 3.78408 3.53525 4.428 3.38586 5.1038C3.30467 5.4702 3.33449 5.84692 3.27869 6.21892C3.26157 6.33407 3.29611 6.4498 3.29611 6.56553V8.18492C3.29611 8.29239 3.26452 8.40015 3.2781 8.50821C3.31146 8.76773 3.29995 9.02931 3.34394 9.28705C3.41302 9.69507 3.47532 10.1016 3.55917 10.5067C3.67638 11.0727 3.78827 11.638 3.91818 12.2014C4.01266 12.6114 4.1151 13.0192 4.22759 13.4245C4.39883 14.0439 4.56593 14.6642 4.75991 15.2763C4.9403 15.8452 5.14578 16.4059 5.35098 16.9668C5.635 17.7427 5.97393 18.4935 6.38136 19.2127C6.73417 19.836 7.13658 20.4196 7.67687 20.8994C8.03323 21.2159 8.42914 21.4589 8.89001 21.5805C9.25256 21.6756 9.62161 21.6871 9.99214 21.6112C10.4223 21.5232 10.8035 21.3378 11.1421 21.0606C11.1811 21.029 11.2233 21.0045 11.2696 21.063C11.445 21.285 11.6794 21.4332 11.9248 21.561C12.5867 21.9065 13.308 22.0101 14.0405 22.052C14.2182 22.0621 14.3971 22.0367 14.5757 22.0319C14.9244 22.0222 15.2628 21.9543 15.5955 21.8581C15.7703 21.8076 15.9406 21.7432 16.1184 21.6836C16.1275 21.8728 16.1393 22.0547 16.1452 22.2368L16.1697 23.2297C16.1745 23.3809 16.1804 23.5321 16.1942 23.6826C16.2303 24.0706 16.2654 24.4585 16.3117 24.8453C16.3436 25.1119 16.3773 25.3803 16.4399 25.6407C16.5662 26.1656 16.7369 26.6767 16.9542 27.1724C17.167 27.6583 17.4738 28.069 17.8836 28.4076V28.4076ZM16.8234 23.4571C16.8024 22.9909 16.7868 22.5244 16.7764 22.0579C16.764 21.4846 16.7599 20.9109 16.7519 20.3376L16.7505 20.3157C16.4591 20.4908 16.1718 20.6821 15.868 20.8401C15.5116 21.0252 15.1249 21.1324 14.7242 21.1628C14.4104 21.1864 14.0918 21.2079 13.7795 21.1831C13.2669 21.1415 12.7544 21.0615 12.2956 20.8088C12.1096 20.7063 11.9153 20.5814 11.7869 20.4182C11.4796 20.0258 11.6269 19.5301 12.0904 19.2915C12.4107 19.1262 12.7603 19.0574 13.1075 18.9771C13.4089 18.9074 13.7095 18.828 14.0039 18.7321C14.295 18.6367 14.4786 18.4005 14.6602 18.1687L14.9477 17.7991L14.602 17.7631C14.2589 17.7312 13.9315 17.6364 13.6186 17.4977C13.3511 17.3793 13.3469 17.3663 13.1503 17.5794C12.8226 17.9352 12.5037 18.2998 12.1822 18.6618C11.9457 18.9281 11.711 19.1959 11.4751 19.4631C11.2425 19.7273 11.024 20.0063 10.7728 20.2519C10.4002 20.6169 9.95081 20.8362 9.41465 20.8114C9.0707 20.7955 8.75597 20.675 8.47254 20.4781C7.88826 20.0713 7.49471 19.5014 7.13599 18.9036C6.6769 18.1371 6.32408 17.3208 6.02265 16.4823C5.81391 15.9025 5.604 15.3223 5.42213 14.7342C5.22402 14.095 5.05013 13.4485 4.87918 12.8013C4.74987 12.3133 4.63532 11.8211 4.52608 11.328C4.40178 10.7674 4.2825 10.2052 4.1771 9.64075C4.10595 9.25959 4.06491 8.87283 4.00734 8.48931C3.92969 7.97176 3.91552 7.45007 3.94386 6.93075C3.96896 6.46279 4.03598 5.99631 4.1027 5.53161C4.19511 4.88857 4.4071 4.28186 4.71178 3.7088C4.89867 3.35776 5.12984 3.0386 5.39762 2.74218C5.83753 2.25533 6.36985 1.9037 6.9621 1.63946C7.37573 1.45494 7.81298 1.34423 8.25849 1.25713C8.91983 1.12841 9.58707 1.13372 10.2543 1.1473C10.546 1.1535 10.8368 1.20635 11.1282 1.23558C11.7559 1.29787 12.3709 1.43014 12.9782 1.59282C13.421 1.7115 13.8548 1.86562 14.2935 1.99907C14.3372 2.01235 14.4018 2.01117 14.4381 1.98785C15.0331 1.59931 15.6829 1.34304 16.3746 1.19631C16.6371 1.14081 16.9081 1.1163 17.1765 1.09918C17.5024 1.0788 17.8316 1.05932 18.157 1.07851C18.5482 1.10095 18.9382 1.15852 19.327 1.21166C19.516 1.23764 19.7002 1.30289 19.8892 1.32061C19.9801 1.32917 20.076 1.26333 20.1717 1.24089C20.66 1.12781 21.1463 1.00234 21.639 0.913471C22.0057 0.847337 22.3807 0.816042 22.7533 0.794784C23.1696 0.77087 23.5882 0.753451 24.0039 0.773527C24.5294 0.798918 25.0511 0.873613 25.566 0.993481C26.2043 1.14199 26.8161 1.35751 27.398 1.65688C27.8329 1.88097 28.2459 2.14019 28.6182 2.45905C28.8621 2.66837 29.1118 2.87475 29.3318 3.10799C29.6034 3.39555 29.8804 3.68282 30.051 4.05098C30.1794 4.3288 30.271 4.61636 30.2963 4.92017C30.3276 5.29837 30.3657 5.67775 30.3625 6.05654C30.3592 6.4185 30.3096 6.78017 30.2748 7.14155C30.1948 7.96467 30.0162 8.77009 29.7986 9.56487C29.6194 10.2212 29.4091 10.8704 29.1818 11.5123C28.9725 12.1036 28.7307 12.6841 28.4865 13.2625C28.3061 13.69 28.1116 14.113 27.9008 14.5264C27.501 15.3093 27.0853 16.0843 26.6044 16.8224C26.5214 16.9497 26.4426 17.0802 26.3617 17.2104C26.5716 17.3518 26.8093 17.4017 27.0484 17.4277C27.276 17.4522 27.5081 17.4672 27.7354 17.4501C28.0995 17.423 28.4623 17.371 28.8243 17.3205C29.1827 17.2703 29.5337 17.1685 29.9022 17.1953C30.2695 17.2222 30.5328 17.5015 30.5077 17.8457C30.4918 18.0636 30.3917 18.2505 30.247 18.4102C29.5636 19.1643 28.7056 19.6213 27.7242 19.8466C27.3513 19.9322 26.9669 19.9762 26.5852 20.0119C26.2601 20.042 25.9309 20.0471 25.6047 20.0349C25.365 20.0261 25.1273 19.9712 24.8822 19.9357C24.8574 20.1598 24.8341 20.3934 24.8058 20.626L24.6915 21.5185C24.657 21.8014 24.6301 22.0854 24.5944 22.3682C24.5595 22.6428 24.5161 22.9159 24.4795 23.1902C24.4456 23.4456 24.4205 23.7024 24.3821 23.9575C24.3239 24.3484 24.2681 24.7402 24.1917 25.1281C24.1002 25.5916 23.9602 26.0404 23.7308 26.4588C23.4515 26.9692 23.0556 27.3581 22.5513 27.6459C22.0317 27.9426 21.4634 28.0971 20.888 28.2264C20.4799 28.3182 20.0604 28.3329 19.6474 28.2954C18.9314 28.2308 18.3203 27.9246 17.8582 27.3693C17.4174 26.8393 17.1189 26.2323 17.0123 25.5447C16.961 25.2179 16.9244 24.8884 16.8954 24.5589C16.8624 24.1919 16.8405 23.8246 16.8234 23.4571V23.4571ZM17.6282 18.7468C17.6326 18.9919 17.6073 19.2369 17.6084 19.482C17.6135 20.6225 17.6217 21.7633 17.6315 22.9041C17.6332 23.0904 17.6424 23.2773 17.6557 23.4633C17.6837 23.853 17.7115 24.243 17.7493 24.6315C17.7764 24.9076 17.8133 25.1827 17.8567 25.4567C17.9187 25.8444 18.0953 26.1898 18.2955 26.5202C18.4679 26.8042 18.6926 27.0451 18.9881 27.2116C19.4906 27.4942 20.0312 27.5178 20.5762 27.4139C20.9443 27.3439 21.3063 27.2308 21.6635 27.1142C22.0161 26.9993 22.3346 26.8119 22.6018 26.5529C22.8525 26.3103 23.0302 26.0141 23.1501 25.6873C23.3824 25.0537 23.4554 24.3862 23.5513 23.7243C23.5873 23.4763 23.6186 23.2277 23.6514 22.9794C23.6889 22.6968 23.7267 22.4146 23.7627 22.132C23.7899 21.9212 23.8141 21.7107 23.8398 21.5002C23.8767 21.1979 23.9153 20.8959 23.9505 20.5935C23.9773 20.3597 23.9998 20.125 24.024 19.8906C24.0547 19.5909 24.0875 19.2921 24.1143 18.9919C24.1344 18.7645 24.1261 18.5328 24.1666 18.3093C24.2407 17.8998 24.4344 17.5514 24.7975 17.3258C24.9493 17.2319 25.1211 17.1699 25.2894 17.0902L25.2604 17.0462C25.1049 16.8443 24.9454 16.6456 24.7928 16.4413C24.5531 16.1207 24.3806 15.7631 24.2073 15.4038C24.0432 15.0631 23.8424 14.7407 23.6697 14.4038C23.3683 13.8163 23.0612 13.2303 22.7834 12.6318C22.4341 11.879 22.159 11.1001 22.0725 10.2664C22.0355 9.91384 22.0261 9.56133 22.0978 9.21206C22.2121 8.65406 22.5032 8.21769 22.9933 7.91832C23.448 7.6408 23.9543 7.55104 24.473 7.523C24.7949 7.50558 25.1187 7.51975 25.4526 7.51975L25.4417 7.46336C25.2339 7.02876 25.0399 6.58679 24.8123 6.16283C24.4916 5.56408 24.0807 5.02438 23.6236 4.52336C23.2853 4.15284 22.9183 3.80918 22.5165 3.50479C22.1215 3.20571 21.7052 2.93852 21.2608 2.72034C20.7312 2.45964 20.1791 2.25829 19.6004 2.12986C19.0439 2.00645 18.4844 1.93087 17.9134 1.92467C17.4269 1.91935 16.9433 1.94179 16.4691 2.05132C15.7534 2.21695 15.0989 2.5116 14.53 2.98871C14.212 3.25531 13.9342 3.55439 13.6918 3.88742C13.4063 4.27861 13.1766 4.70198 12.98 5.14514C12.7101 5.75363 12.525 6.38632 12.398 7.03703C12.3349 7.36179 12.2853 7.68862 12.2348 8.01546C12.2171 8.1303 12.2159 8.24692 12.2053 8.3783L12.4214 8.26582L12.6322 8.17134C13.3458 7.8451 14.0847 7.63519 14.8789 7.6591C15.2167 7.66914 15.5391 7.73616 15.8397 7.88407C16.4154 8.16809 16.7519 8.65081 16.8984 9.26137C16.9994 9.68297 17.0687 10.1128 17.136 10.5418C17.1886 10.8766 17.2426 11.215 17.2485 11.5527C17.2571 12.0464 17.2323 12.5412 17.2054 13.0345C17.1827 13.4549 17.095 13.8686 16.948 14.261C16.6811 14.9742 16.3835 15.676 16.1057 16.3852C16.0138 16.6196 15.9433 16.862 15.8568 17.1198L16.2075 17.12C16.25 17.1209 16.2934 17.1221 16.3345 17.1319C16.6536 17.2071 16.9309 17.3518 17.1579 17.5975C17.4614 17.9234 17.6202 18.3048 17.6282 18.7468V18.7468ZM11.5324 15.3648C11.3511 14.9356 11.2422 14.4877 11.2094 14.0251C11.1787 13.5899 11.2304 13.157 11.2752 12.7236C11.3184 12.3041 11.355 11.8825 11.3674 11.4615C11.3883 10.7686 11.3417 10.0774 11.3086 9.38507C11.2888 8.97292 11.3367 8.55574 11.3733 8.1427C11.4063 7.7707 11.4477 7.39781 11.5182 7.03113C11.636 6.41585 11.7928 5.80943 12.0157 5.2216C12.2268 4.66419 12.4701 4.12184 12.8126 3.63322C13.0479 3.29782 13.3142 2.98517 13.5701 2.65745L13.494 2.63029C12.6605 2.36575 11.8132 2.1585 10.9413 2.06845C10.5295 2.02564 10.1158 2.00084 9.7028 1.97604C9.57585 1.96866 9.44713 1.98578 9.31988 1.99789C9.00486 2.02829 8.6857 2.0401 8.3757 2.09915C7.84811 2.19953 7.34177 2.36841 6.87323 2.64328C6.45222 2.8901 6.09882 3.20866 5.80269 3.59129C5.47586 4.01378 5.25532 4.49148 5.09736 5.00047C4.91077 5.60128 4.82161 6.21981 4.7977 6.84365C4.77673 7.39073 4.7664 7.94076 4.86088 8.48577C4.93085 8.89114 4.97779 9.30122 5.05515 9.70541C5.16084 10.256 5.27421 10.8058 5.4053 11.3508C5.59219 12.1314 5.77937 12.9126 6.00109 13.6838C6.21307 14.4222 6.45192 15.154 6.71173 15.8774C6.92372 16.4676 7.16906 17.0468 7.42739 17.6181C7.59568 17.9904 7.7994 18.3488 8.01315 18.6972C8.24019 19.0674 8.49882 19.4188 8.84897 19.6874C9.29154 20.0264 9.63372 20.0792 10.0837 19.7069C10.2762 19.5478 10.4388 19.3506 10.6065 19.1631C10.8725 18.8655 11.1294 18.559 11.3945 18.26C11.732 17.8794 12.0736 17.5027 12.4128 17.1233C12.4846 17.0433 12.5539 16.9606 12.6236 16.8797L12.5076 16.7785C12.0869 16.3734 11.7603 15.904 11.5324 15.3648ZM24.3284 4.02677C24.6041 4.35006 24.871 4.68279 25.1173 5.02881C25.5938 5.69842 25.9746 6.42116 26.2554 7.19469C26.3794 7.53569 26.4786 7.87994 26.4343 8.25283C26.4036 8.51411 26.4057 8.77894 26.3829 9.04171C26.3638 9.26018 26.3289 9.47748 26.3009 9.69537C26.2584 10.0237 26.1969 10.3514 26.1786 10.6812C26.1609 10.9953 26.1795 11.3124 26.1993 11.6268C26.2191 11.9466 26.2622 12.2648 26.2914 12.5837C26.3245 12.946 26.3694 13.3073 26.3794 13.6702C26.3877 13.9678 26.3611 14.2669 26.3354 14.5645C26.3044 14.9226 26.2138 15.2692 26.0786 15.6013C25.9832 15.8358 25.8695 16.0625 25.7624 16.2969L25.8055 16.3424L25.871 16.3932L25.9374 16.2751C26.4948 15.3961 26.9908 14.4836 27.4198 13.5361C27.6968 12.9262 27.9548 12.3074 28.2034 11.685C28.5905 10.7163 28.8972 9.72076 29.1337 8.70484C29.24 8.24899 29.3215 7.78605 29.3935 7.32312C29.4499 6.96116 29.4965 6.59506 29.5072 6.22985C29.5181 5.84249 29.4968 5.45219 29.4611 5.06601C29.4342 4.77432 29.3622 4.48085 29.1797 4.24318C28.8857 3.86144 28.5686 3.49652 28.1786 3.20748C27.85 2.9645 27.5223 2.71443 27.1701 2.51013C26.6112 2.18566 26.0062 1.97013 25.3741 1.8231C24.7568 1.67932 24.132 1.61732 23.5032 1.60404C23.1324 1.59606 22.7598 1.63592 22.3898 1.67106C22.0544 1.70235 21.7211 1.75608 21.3837 1.80037C21.7459 2.00409 22.1035 2.18536 22.44 2.39882C23.1486 2.84758 23.784 3.38758 24.3284 4.02677V4.02677ZM15.1228 16.593C15.3516 15.8609 15.6637 15.1611 15.9657 14.4579C16.2111 13.8872 16.3448 13.2864 16.3894 12.6687C16.4115 12.3643 16.4056 12.0561 16.3906 11.7508C16.3737 11.4119 16.3469 11.0715 16.2973 10.7358C16.2338 10.3065 16.1618 9.87694 16.0602 9.45563C15.9501 8.99978 15.6725 8.68211 15.1966 8.5649C14.907 8.49374 14.6188 8.4967 14.3257 8.54305C13.6103 8.65553 12.9555 8.91918 12.3455 9.30536C12.2227 9.383 12.1548 9.44589 12.1763 9.62156C12.2212 9.99474 12.2309 10.3738 12.2292 10.7503C12.2268 11.2832 12.2041 11.8161 12.184 12.3487C12.1775 12.522 12.1524 12.695 12.1335 12.8677C12.1052 13.1322 12.05 13.3965 12.0517 13.6607C12.0535 13.9329 12.0813 14.2113 12.1474 14.475C12.3573 15.3111 12.8013 15.9949 13.5297 16.4776C13.9776 16.7746 14.473 16.924 15.0171 16.9526C15.0531 16.8278 15.0865 16.71 15.1228 16.593ZM14.2678 9.42198C14.1718 9.22092 14.2268 9.05411 14.4488 8.97675C14.5031 8.95815 14.5586 8.93749 14.6147 8.93217C14.6924 8.9245 14.7706 8.93011 14.8488 8.93011C15.1308 8.93188 15.4018 8.97115 15.6342 9.15006C15.7836 9.2652 15.8237 9.41725 15.7269 9.57432C15.5896 9.79663 15.3808 9.90823 15.124 9.92949C14.7198 9.96285 14.4361 9.77449 14.2678 9.42198V9.42198ZM25.4795 9.34846L25.5713 8.54393C25.5846 8.43647 25.5282 8.40694 25.4379 8.40429C25.1536 8.39661 24.8695 8.38628 24.5852 8.38155C24.2652 8.37565 23.9531 8.42702 23.6567 8.54866C23.3278 8.68417 23.0774 8.90088 22.975 9.259C22.8985 9.5259 22.8782 9.7925 22.9053 10.0715C22.9464 10.4969 23.0408 10.9097 23.1896 11.3056C23.3886 11.835 23.5965 12.364 23.8454 12.8713C24.1822 13.5577 24.5631 14.2226 24.9209 14.8987C25.0163 15.0791 25.0972 15.2677 25.1967 15.4782C25.4054 15.0365 25.507 14.5943 25.5185 14.1384C25.5282 13.7543 25.4978 13.3693 25.4754 12.9852C25.4615 12.7502 25.4281 12.5164 25.4054 12.282C25.3738 11.9554 25.3254 11.6286 25.3177 11.3012C25.3103 10.9681 25.334 10.6333 25.3623 10.3006C25.3889 9.98234 25.4414 9.66614 25.4795 9.34846V9.34846ZM24.8391 9.09042C24.7334 9.38182 24.5079 9.54657 24.215 9.59469C23.9422 9.63986 23.7031 9.53919 23.5253 9.3213C23.3987 9.1663 23.4471 8.98295 23.6369 8.87785C23.8548 8.75739 24.0942 8.72698 24.3768 8.70868C24.4539 8.72255 24.569 8.73466 24.6788 8.76566C24.838 8.81053 24.897 8.93099 24.8391 9.09042V9.09042ZM16.3959 18.0666C16.24 17.939 16.0333 17.9317 15.8851 18.0716C15.7009 18.2458 15.5388 18.4448 15.3767 18.6408C15.1898 18.8676 15.0139 19.1032 14.773 19.2788C14.4219 19.5342 14.0118 19.6399 13.6003 19.74C13.2731 19.8197 12.9442 19.8938 12.6162 19.97L12.6121 20.0125C12.7095 20.0574 12.8037 20.1138 12.9056 20.146C13.406 20.3042 13.9153 20.3833 14.4443 20.3385C14.8258 20.3057 15.1895 20.2224 15.5341 20.0592C16.0085 19.8345 16.3737 19.4781 16.684 19.0642C16.736 18.9951 16.7596 18.893 16.7655 18.8038C16.7865 18.4891 16.6268 18.2549 16.3959 18.0666V18.0666ZM25.5321 17.9302C25.2867 18.0126 25.0871 18.138 25.0278 18.4035C24.9873 18.583 24.9726 18.7687 24.9569 18.9526C24.954 18.9851 24.9944 19.0447 25.0251 19.053C25.2141 19.1029 25.4042 19.1616 25.5973 19.179C25.835 19.2006 26.0765 19.1938 26.3156 19.182C26.5737 19.169 26.8335 19.1522 27.088 19.1097C27.687 19.0087 28.2672 18.8451 28.7821 18.505C28.9681 18.3825 29.1517 18.2573 29.3365 18.1327L29.3212 18.1064C29.1242 18.1357 28.9279 18.1714 28.7301 18.1924C28.3274 18.2355 27.9244 18.2809 27.5202 18.3043C27.3251 18.3155 27.1272 18.278 26.9306 18.262C26.6005 18.2352 26.2781 18.1619 25.9991 17.9854C25.8382 17.8838 25.7036 17.8726 25.5321 17.9302V17.9302Z" fill="#507C72"/>
<path d="M0 29.2831C0.322697 29.2293 0.744594 29.1833 1.28222 29.1833C1.94208 29.1833 2.42598 29.3368 2.73303 29.6131C3.01705 29.8588 3.18593 30.2349 3.18593 30.6958C3.18593 31.164 3.04746 31.5325 2.78647 31.8012C2.43336 32.1773 1.85765 32.3692 1.20517 32.3692C1.00559 32.3692 0.821356 32.3615 0.668127 32.3231V34.396H0V29.2831V29.2831ZM0.668127 31.7778C0.813975 31.8162 0.998204 31.8316 1.22081 31.8316C2.02652 31.8316 2.5181 31.4401 2.5181 30.7262C2.5181 30.043 2.03449 29.7129 1.29758 29.7129C1.00588 29.7129 0.78327 29.736 0.668127 29.7667V31.7778V31.7778ZM7.2313 32.5071C7.2313 33.8811 6.27915 34.4802 5.38103 34.4802C4.37545 34.4802 3.60015 33.7432 3.60015 32.5685C3.60015 31.3249 4.41383 30.5957 5.44244 30.5957C6.50973 30.5954 7.2313 31.371 7.2313 32.5071V32.5071ZM4.28363 32.5455C4.28363 33.3591 4.75188 33.9732 5.41203 33.9732C6.05684 33.9732 6.54014 33.3668 6.54014 32.5301C6.54014 31.9006 6.22571 31.1023 5.42709 31.1023C4.62847 31.1023 4.28363 31.8392 4.28363 32.5455ZM7.99095 33.7046C8.19053 33.8351 8.54364 33.9732 8.88139 33.9732C9.37267 33.9732 9.60296 33.7276 9.60296 33.4205C9.60296 33.0981 9.41135 32.9216 8.9121 32.7374C8.24427 32.4994 7.92954 32.1309 7.92954 31.6857C7.92954 31.087 8.41314 30.5957 9.21147 30.5957C9.58761 30.5957 9.91798 30.7032 10.1252 30.826L9.95636 31.3173C9.81051 31.2251 9.54184 31.1023 9.19641 31.1023C8.79725 31.1023 8.57464 31.3326 8.57464 31.6089C8.57464 31.916 8.79754 32.0542 9.28115 32.2384C9.92595 32.484 10.256 32.8064 10.256 33.3591C10.256 34.0116 9.7494 34.4722 8.86663 34.4722C8.45979 34.4722 8.08365 34.3724 7.82266 34.2189L7.99095 33.7046V33.7046ZM11.9368 29.6128V30.6798H12.9037V31.1941H11.9368V33.1976C11.9368 33.6582 12.067 33.9192 12.4435 33.9192C12.62 33.9192 12.7505 33.8962 12.8349 33.8731L12.8656 34.3798C12.7354 34.4335 12.5279 34.4719 12.2672 34.4719C11.9525 34.4719 11.6989 34.3721 11.5377 34.1879C11.3461 33.9883 11.2767 33.6582 11.2767 33.2207V31.1941H10.701V30.6798H11.2767V29.7894L11.9368 29.6128V29.6128ZM16.8189 30.6801C16.8033 30.9488 16.7882 31.2482 16.7882 31.7011V33.8581C16.7882 34.7101 16.6193 35.2321 16.2585 35.5548C15.8978 35.8926 15.3758 36 14.9075 36C14.4623 36 13.971 35.8926 13.6714 35.693L13.8402 35.1787C14.0859 35.3322 14.4697 35.4704 14.9303 35.4704C15.6211 35.4704 16.1277 35.1096 16.1277 34.1731V33.7586H16.1124C15.9051 34.104 15.506 34.3804 14.9303 34.3804C14.0091 34.3804 13.349 33.5974 13.349 32.5685C13.349 31.3096 14.1703 30.5957 15.0224 30.5957C15.6675 30.5957 16.0206 30.9334 16.1818 31.2405H16.1971L16.2278 30.6801H16.8189V30.6801ZM16.1204 32.1463C16.1204 32.0311 16.1127 31.9314 16.082 31.8392C15.9592 31.4478 15.6291 31.1253 15.1378 31.1253C14.4927 31.1253 14.0324 31.6704 14.0324 32.5301C14.0324 33.2593 14.4009 33.8658 15.1301 33.8658C15.5447 33.8658 15.9208 33.6048 16.0666 33.1749C16.105 33.0598 16.1207 32.9293 16.1207 32.8141V32.1463H16.1204ZM17.8626 31.8392C17.8626 31.4017 17.8549 31.0256 17.8319 30.6801H18.4232L18.446 31.4094H18.4767C18.6456 30.9104 19.0524 30.5957 19.5053 30.5957C19.5821 30.5957 19.6355 30.6034 19.6969 30.6187V31.2558C19.6281 31.2405 19.5587 31.2328 19.4669 31.2328C18.991 31.2328 18.6529 31.5936 18.5611 32.1002C18.5458 32.1923 18.5304 32.2998 18.5304 32.415V34.3954H17.8626V31.8392ZM20.6724 32.6606C20.6877 33.5741 21.2708 33.9502 21.9463 33.9502C22.4302 33.9502 22.7216 33.8658 22.9749 33.7583L23.0901 34.2419C22.8521 34.3494 22.4453 34.4722 21.8542 34.4722C20.7105 34.4722 20.0273 33.7199 20.0273 32.5992C20.0273 31.4785 20.6874 30.5954 21.7698 30.5954C22.9826 30.5954 23.305 31.6624 23.305 32.3456C23.305 32.4837 23.2897 32.5912 23.282 32.6603H20.6724V32.6606ZM22.6528 32.177C22.6602 31.7471 22.476 31.0793 21.7163 31.0793C21.0332 31.0793 20.7338 31.7087 20.6797 32.177H22.6528V32.177ZM24.0726 33.5817C24.372 33.766 24.8096 33.9195 25.2701 33.9195C25.9533 33.9195 26.3525 33.5587 26.3525 33.0367C26.3525 32.5531 26.0761 32.2768 25.3776 32.0081C24.5332 31.7087 24.0112 31.2712 24.0112 30.542C24.0112 29.736 24.6791 29.1372 25.6846 29.1372C26.2143 29.1372 26.5981 29.26 26.8284 29.3905L26.6442 29.9355C26.4753 29.8434 26.1299 29.6899 25.6616 29.6899C24.9554 29.6899 24.6867 30.1121 24.6867 30.4652C24.6867 30.9488 25.0012 31.1868 25.7154 31.4631C26.5904 31.8012 27.0357 32.223 27.0357 32.983C27.0357 33.7813 26.4446 34.4722 25.2241 34.4722C24.7251 34.4722 24.1801 34.3263 23.9035 34.1421L24.0726 33.5817V33.5817ZM32.2171 35.1554C31.5186 34.9711 30.8354 34.7639 30.2367 34.5566C30.1292 34.5182 30.0217 34.4799 29.9219 34.4799C28.6937 34.4338 27.6421 33.528 27.6421 31.8623C27.6421 30.2042 28.6553 29.1372 30.0524 29.1372C31.4572 29.1372 32.3709 30.2272 32.3709 31.7548C32.3709 33.0828 31.7568 33.9348 30.8971 34.2342V34.2649C31.4114 34.3954 31.9718 34.5182 32.4093 34.595L32.2171 35.1554V35.1554ZM31.6644 31.7855C31.6644 30.7492 31.1274 29.6819 30.0294 29.6819C28.901 29.6819 28.3483 30.7259 28.356 31.8469C28.3483 32.9446 28.9547 33.9348 29.9987 33.9348C31.066 33.9348 31.6644 32.9676 31.6644 31.7855V31.7855ZM33.2378 29.2216H33.9059V33.8351H36.1166V34.3954H33.2378V29.2216Z" fill="#507C72"/>
</svg>
