<svg width="42" height="36" viewBox="0 0 42 36" fill="none" xmlns="http://www.w3.org/2000/svg">
<path d="M33.6036 11.6662C33.1697 11.5216 32.7358 11.385 32.3018 11.2564C32.3742 10.9591 32.4384 10.6618 32.5027 10.3645C33.4911 5.57548 32.8402 1.72658 30.6466 0.457006C28.5333 -0.756322 25.0862 0.505218 21.5988 3.54256C21.2533 3.83986 20.9158 4.15324 20.5944 4.46661C20.3775 4.2577 20.1525 4.04878 19.9275 3.8479C16.2715 0.601642 12.6074 -0.764357 10.4137 0.513254C8.30849 1.73462 7.68173 5.35853 8.56561 9.89043C8.654 10.3404 8.75043 10.7823 8.86292 11.2323C8.34866 11.377 7.84244 11.5377 7.36836 11.7064C3.07751 13.1929 0 15.5392 0 17.9659C0 20.4729 3.2784 22.9879 7.73798 24.5146C8.09957 24.6352 8.46116 24.7557 8.83078 24.8602C8.71025 25.3423 8.60579 25.8164 8.50937 26.3065C7.66566 30.7661 8.32456 34.3016 10.4298 35.515C12.5993 36.7685 16.2473 35.4828 19.7989 32.3732C20.0802 32.1241 20.3614 31.8669 20.6426 31.5937C20.9962 31.9393 21.3658 32.2687 21.7354 32.5901C25.1745 35.5471 28.5735 36.7444 30.6707 35.531C32.8402 34.2775 33.5473 30.4768 32.6313 25.8485C32.559 25.495 32.4786 25.1334 32.3902 24.7637C32.6474 24.6914 32.8965 24.6111 33.1456 24.5307C37.7819 22.996 41.1407 20.5131 41.1407 17.9659C41.1407 15.5312 37.9748 13.1688 33.6036 11.6662V11.6662ZM22.7318 4.84427C25.7209 2.24084 28.5092 1.22036 29.7788 1.95157C31.1367 2.73099 31.659 5.88082 30.8073 10.019C30.751 10.2922 30.6948 10.5574 30.6225 10.8225C28.8386 10.4208 27.0307 10.1315 25.2147 9.97078C24.1701 8.47622 23.0291 7.04594 21.7917 5.70405C22.1051 5.40674 22.4104 5.12551 22.7318 4.84427V4.84427ZM13.435 22.1362C13.8448 22.8353 14.2626 23.5343 14.7046 24.2173C13.4511 24.0807 12.2056 23.8799 10.9762 23.6147C11.3298 22.4576 11.7717 21.2604 12.286 20.039C12.6556 20.7461 13.0332 21.4452 13.435 22.1362V22.1362ZM11.0003 12.4698C12.1574 12.2126 13.3868 12.0037 14.6644 11.843C14.2385 12.5099 13.8207 13.1929 13.427 13.884C13.0332 14.567 12.6475 15.266 12.286 15.9731C11.7797 14.7759 11.3539 13.6027 11.0003 12.4698ZM13.202 18.0061C13.7323 16.8972 14.3108 15.8124 14.9215 14.7437C15.5322 13.675 16.1911 12.6385 16.8821 11.618C18.0874 11.5296 19.3168 11.4814 20.5703 11.4814C21.8238 11.4814 23.0613 11.5296 24.2585 11.618C24.9415 12.6305 25.5924 13.667 26.2111 14.7277C26.8298 15.7883 27.4084 16.8731 27.9548 17.9739C27.4164 19.0828 26.8379 20.1756 26.2191 21.2523C25.6085 22.321 24.9576 23.3576 24.2746 24.3861C23.0773 24.4745 21.8319 24.5146 20.5703 24.5146C19.3088 24.5146 18.0874 24.4745 16.9062 24.4022C16.2072 23.3817 15.5483 22.3371 14.9296 21.2684C14.3108 20.1997 13.7403 19.1149 13.202 18.0061ZM27.7137 22.1201C28.1235 21.413 28.5092 20.6979 28.8868 19.9747C29.4011 21.1398 29.8511 22.321 30.2448 23.5343C28.9993 23.8156 27.7378 24.0325 26.4682 24.1772C26.9021 23.5022 27.3119 22.8112 27.7137 22.1201ZM28.8708 15.9731C28.4931 15.266 28.1074 14.5589 27.7057 13.8679C27.3119 13.1849 26.9021 12.5099 26.4763 11.843C27.7699 12.0037 29.0074 12.2207 30.1645 12.4858C29.7948 13.675 29.3609 14.8321 28.8708 15.9731V15.9731ZM20.5864 6.93345C21.4301 7.84947 22.2256 8.8137 22.9648 9.81008C21.3739 9.73776 19.7748 9.73776 18.1839 9.81008C18.9713 8.77353 19.7829 7.80929 20.5864 6.93345ZM11.2655 2.00782C12.6154 1.22036 15.6126 2.3453 18.7704 5.14158C18.9713 5.31835 19.1722 5.5112 19.3811 5.70405C18.1356 7.04594 16.9866 8.47622 15.934 9.97078C14.118 10.1315 12.3181 10.4127 10.5343 10.8065C10.4298 10.3967 10.3414 9.97882 10.253 9.56098C9.49771 5.67191 9.99589 2.73903 11.2655 2.00782V2.00782ZM9.29682 23.1888C8.95934 23.0924 8.6299 22.9879 8.30045 22.8755C6.58893 22.3371 4.64439 21.4853 3.23822 20.3684C2.42666 19.806 1.88026 18.9382 1.72759 17.9659C1.72759 16.4954 4.26674 14.6152 7.93083 13.3376C8.38884 13.1769 8.85488 13.0322 9.32093 12.8956C9.86733 14.6393 10.5262 16.3508 11.2896 18.0061C10.5182 19.6854 9.85126 21.4211 9.29682 23.1888V23.1888ZM18.666 31.0634C17.3401 32.2767 15.8054 33.241 14.1341 33.8999C13.2421 34.3257 12.2136 34.3659 11.2976 34.0043C10.02 33.2651 9.48967 30.4286 10.2128 26.6119C10.3012 26.1619 10.3977 25.7119 10.5102 25.27C12.3101 25.6557 14.126 25.9208 15.9661 26.0574C17.0268 27.56 18.1919 28.9983 19.4374 30.3483C19.1802 30.5974 18.9231 30.8384 18.666 31.0634ZM20.6346 29.1108C19.815 28.2269 18.9954 27.2466 18.1999 26.194C18.9713 26.2262 19.7668 26.2422 20.5703 26.2422C21.398 26.2422 22.2095 26.2262 23.0131 26.186C22.2738 27.2065 21.4783 28.1787 20.6346 29.1108V29.1108ZM31.1367 31.5214C31.0644 32.5017 30.5823 33.4177 29.8109 34.0365C28.5333 34.7757 25.8093 33.8115 22.8684 31.2884C22.5309 30.9991 22.1935 30.6857 21.8479 30.3643C23.0773 29.0064 24.2103 27.5681 25.2388 26.0574C27.0789 25.9048 28.911 25.6235 30.7189 25.2137C30.7992 25.5432 30.8716 25.8726 30.9358 26.194C31.3296 27.9296 31.3939 29.7376 31.1367 31.5214V31.5214ZM32.5992 22.8835C32.3742 22.9558 32.1492 23.0281 31.9162 23.0924C31.3537 21.3407 30.6626 19.6292 29.8672 17.9659C30.6385 16.3267 31.2894 14.6393 31.8358 12.9117C32.2536 13.0322 32.6554 13.1608 33.0411 13.2894C36.7855 14.575 39.4131 16.4874 39.4131 17.9498C39.4131 19.5247 36.6088 21.5577 32.5992 22.8835ZM20.5703 21.6782C22.6033 21.6782 24.2505 20.031 24.2505 17.998C24.2505 15.9651 22.6033 14.3179 20.5703 14.3179C18.5374 14.3179 16.8902 15.9651 16.8902 17.998C16.8902 20.031 18.5374 21.6782 20.5703 21.6782Z" fill="#507C72"/>
</svg>
