<svg width="48" height="36" viewBox="0 0 48 36" fill="none" xmlns="http://www.w3.org/2000/svg">
<path d="M22.6359 27.2165C22.6134 27.2615 22.5909 27.2975 22.6359 27.2165V27.2165ZM41.3191 20.692C39.8108 20.6915 38.3225 21.0379 36.9695 21.7044C36.527 20.812 36.0695 20.032 35.9945 19.4471C35.9046 18.7647 35.8071 18.3597 35.9121 17.5498C36.017 16.7398 36.4895 15.5924 36.482 15.5099C36.4745 15.4274 36.377 15.015 35.4096 15.0075C34.4422 15 33.6097 15.1949 33.513 15.4499C33.3421 15.9159 33.2092 16.3949 33.1155 16.8823C32.943 17.7597 31.1814 20.8945 30.184 22.5293C29.854 21.8919 29.5766 21.3294 29.5166 20.8795C29.4266 20.197 29.3291 19.7921 29.4341 18.9821C29.5391 18.1722 30.0115 17.0248 30.004 16.9423C29.9965 16.8598 29.899 16.4473 28.9324 16.4398C27.9657 16.4323 27.1325 16.6273 27.035 16.8823C26.9375 17.1373 26.8325 17.7372 26.6376 18.3147C26.4426 18.8921 24.096 24.1117 23.4818 25.4691C23.1668 26.159 22.8969 26.714 22.7019 27.089C22.6719 27.149 22.6494 27.1865 22.6344 27.2165C22.6569 27.179 22.6719 27.1415 22.6719 27.1565C22.5069 27.4789 22.4094 27.6589 22.4094 27.6589V27.6664C22.2819 27.9064 22.1394 28.1239 22.0719 28.1239C22.0269 28.1239 21.9294 27.4939 22.0944 26.6315C22.4469 24.8167 23.2793 21.9969 23.2718 21.8994C23.2643 21.8469 23.4293 21.3594 22.7244 21.097C22.0419 20.8495 21.7945 21.2619 21.7345 21.2619C21.6745 21.2619 21.6295 21.4119 21.6295 21.4119C21.6295 21.4119 22.3869 18.2322 20.1753 18.2322C18.7954 18.2322 16.8756 19.7471 15.9322 21.1195C15.3397 21.4419 14.0573 22.1394 12.7074 22.8818C12.19 23.1668 11.6575 23.4593 11.1551 23.7367C11.1176 23.6992 11.0876 23.6618 11.0501 23.6243C8.36605 20.7595 3.41045 18.7347 3.62044 14.8875C3.69543 13.4851 4.18289 9.80288 13.1499 5.33325C20.4993 1.67355 26.3751 2.67846 27.3867 4.91328C28.8416 8.10052 24.2453 14.0325 16.6131 14.8875C13.7041 15.2099 12.175 14.085 11.7925 13.6651C11.3951 13.2226 11.3351 13.2001 11.1851 13.2826C10.9376 13.4176 11.0951 13.8076 11.1851 14.04C11.4101 14.6325 12.3475 15.6824 13.9441 16.2074C15.3465 16.6648 18.7572 16.9198 22.8811 15.3224C27.5142 13.5376 31.1207 8.56548 30.0633 4.40332C28.9864 0.173668 21.9729 -1.21372 15.3412 1.14109C11.3898 2.54347 7.11665 4.7483 4.04265 7.62056C0.391201 11.0403 -0.193001 14.0175 0.0469789 15.2624C0.901159 19.6796 6.98916 22.5593 9.42571 24.6892C9.30572 24.7567 9.19323 24.8167 9.08824 24.8767C7.86659 25.4841 3.22522 27.9139 2.06356 30.4787C0.751172 33.3885 2.28105 35.4733 3.28522 35.7583C6.41921 36.6282 9.6282 35.0608 11.3523 32.4885C13.0764 29.9162 12.8672 26.5565 12.0722 25.0266C12.0647 25.0041 12.0497 24.9891 12.0423 24.9666C12.3572 24.7792 12.6797 24.5917 13.0022 24.4042C13.6239 24.0367 14.2313 23.6992 14.7638 23.4068C14.4638 24.2167 14.2463 25.1916 14.1338 26.6015C13.9988 28.2514 14.6813 30.3887 15.5662 31.2286C15.9562 31.5961 16.4279 31.6036 16.7204 31.6036C17.7553 31.6036 18.2202 30.7487 18.737 29.7288C19.3744 28.4839 19.9369 27.0365 19.9369 27.0365C19.9369 27.0365 19.2319 30.9512 21.1593 30.9512C21.8634 30.9512 22.5684 30.0437 22.8841 29.5788V29.5863C22.8841 29.5863 22.8991 29.5563 22.9366 29.4963C23.0116 29.3838 23.0491 29.3163 23.0491 29.3163V29.2938C23.3341 28.8063 23.9565 27.6889 24.8932 25.8441C26.1081 23.4593 27.2698 20.482 27.2698 20.482C27.382 21.1365 27.5373 21.7828 27.7347 22.4169C27.9447 23.1293 28.3872 23.9092 28.7396 24.6667C28.4547 25.0566 28.2822 25.2816 28.2822 25.2816C28.2827 25.2874 28.2854 25.2927 28.2897 25.2966C28.0647 25.5966 27.8097 25.9191 27.5472 26.234C26.5881 27.374 25.4474 28.6788 25.2974 29.0538C25.1174 29.4963 25.1624 29.8262 25.5074 30.0812C25.7624 30.2762 26.2123 30.3062 26.6841 30.2687C27.5465 30.2087 28.1539 29.9987 28.4464 29.8637C28.9856 29.6704 29.4952 29.4028 29.9605 29.0688C30.898 28.3789 31.4679 27.3889 31.4154 26.0841C31.3854 25.3641 31.1529 24.6442 30.868 23.9692C30.9505 23.8492 31.0405 23.7217 31.1229 23.5943C32.6071 21.4269 33.7545 19.0481 33.7545 19.0481C33.8667 19.7026 34.0221 20.349 34.2194 20.983C34.3994 21.5904 34.7511 22.2579 35.0736 22.9103C33.6795 24.0427 32.8171 25.3551 32.5171 26.2175C31.9621 27.8149 32.3971 28.5349 33.2145 28.6998C33.582 28.7748 34.107 28.6024 34.4969 28.4374C35.0761 28.2445 35.6222 27.9637 36.116 27.6049C37.0535 26.915 37.9601 25.9476 37.9001 24.6352C37.8776 24.0427 37.7127 23.4503 37.4952 22.8803C38.6726 22.3854 40.2017 22.1154 42.1515 22.3404C46.3272 22.8278 47.1446 25.4376 46.9872 26.525C46.8297 27.6124 45.9522 28.2199 45.6598 28.3999C45.3673 28.5799 45.2773 28.6473 45.2998 28.7823C45.3373 28.9773 45.4723 28.9698 45.7198 28.9248C46.0647 28.8648 47.9088 28.0399 47.9913 26.0226C48.1113 23.4728 45.6598 20.668 41.3169 20.6905L41.3191 20.692ZM9.13324 31.5436C7.7541 33.051 5.81926 33.6209 4.98758 33.141C4.09515 32.622 4.44762 30.4037 6.14923 28.7973C7.18415 27.8224 8.51829 26.9225 9.40322 26.3675C9.6057 26.2475 9.89817 26.0676 10.2581 25.8501C10.3181 25.8126 10.3481 25.7976 10.3481 25.7976C10.4156 25.7526 10.4906 25.7151 10.5656 25.6701C11.1873 27.9499 10.5881 29.9597 9.13324 31.5421V31.5436ZM19.2094 24.6892C18.7295 25.8666 17.7178 28.8663 17.1028 28.7088C16.5779 28.5739 16.2554 26.2865 16.9978 24.0367C17.3728 22.9043 18.1678 21.5544 18.6402 21.0295C19.3969 20.182 20.2293 19.9121 20.4243 20.2495C20.6868 20.692 19.5094 23.9542 19.2094 24.6892ZM27.5337 28.6638C27.3313 28.7688 27.1438 28.8363 27.0538 28.7838C26.9863 28.7463 27.1363 28.6039 27.1363 28.6039C27.1363 28.6039 28.1787 27.4864 28.5912 26.9765C28.8311 26.6765 29.1086 26.324 29.4078 25.9341C29.4078 25.9716 29.4153 26.0091 29.4153 26.0541C29.4056 27.3964 28.1164 28.3039 27.5315 28.6638H27.5337ZM33.9517 27.2015C33.8017 27.0965 33.8242 26.744 34.3267 25.6491C34.5217 25.2216 34.9709 24.5017 35.7516 23.8117C35.8399 24.0729 35.888 24.346 35.8941 24.6217C35.8866 26.309 34.6792 26.939 33.9525 27.2015H33.9517Z" fill="#507C72"/>
</svg>
