<svg width="60" height="36" viewBox="0 0 60 36" fill="none" xmlns="http://www.w3.org/2000/svg">
<path d="M49.4028 10.5447C47.1574 9.77131 45.1754 8.38079 43.6841 6.53255C42.0405 4.4733 39.9476 2.81727 37.5656 1.69114C35.1836 0.565018 32.5756 -0.00136179 29.9411 0.0353294C26.3972 -0.215651 22.8887 0.877408 20.1145 3.09683C17.3402 5.31625 15.5036 8.49919 14.9706 12.0118C16.0205 10.255 17.6008 8.87654 19.4839 8.07487C21.367 7.27321 23.4559 7.08963 25.45 7.55055C27.6916 8.34641 29.6704 9.74502 31.1687 11.5926C32.8213 13.6354 34.9182 15.2743 37.2997 16.3846C39.6811 17.495 42.2845 18.0474 44.9117 18C48.4556 18.251 51.9641 17.1579 54.7383 14.9385C57.5126 12.7191 59.3492 9.53614 59.8822 6.02355C58.8513 7.80137 57.2761 9.20062 55.3892 10.0147C53.5022 10.8288 51.4035 11.0146 49.4028 10.5447ZM10.4794 25.4553C12.7248 26.2287 14.7068 27.6192 16.1981 29.4674C17.8418 31.5267 19.9346 33.1827 22.3166 34.3089C24.6986 35.435 27.3066 36.0014 29.9411 35.9647C33.4851 36.2157 36.9935 35.1226 39.7678 32.9032C42.5421 30.6838 44.3786 27.5008 44.9117 23.9882C43.8617 25.745 42.2815 27.1235 40.3984 27.9251C38.5153 28.7268 36.4264 28.9104 34.4323 28.4495C32.1906 27.6536 30.2118 26.255 28.7135 24.4074C27.0565 22.3697 24.9588 20.7343 22.5783 19.6245C20.1979 18.5147 17.5967 17.9592 14.9706 18C11.4266 17.749 7.91818 18.8421 5.1439 21.0615C2.36962 23.2809 0.533078 26.4639 0 29.9764C1.03089 28.1986 2.6061 26.7994 4.49307 25.9853C6.38003 25.1712 8.47875 24.9854 10.4794 25.4553Z" fill="#507C72"/>
</svg>
