<svg width="60" height="48" viewBox="0 0 60 48" fill="none" xmlns="http://www.w3.org/2000/svg">
<path d="M59.0648 5.68253C56.8917 6.64725 54.5562 7.29696 52.105 7.58983C54.6079 6.09106 56.5299 3.71616 57.4331 0.885972C55.0927 2.274 52.4988 3.28302 49.7375 3.82691C47.5299 1.4717 44.3774 0 40.8925 0C33.0689 0 27.3199 7.29943 29.087 14.8769C19.0189 14.3724 10.0902 9.54881 4.11239 2.21739C0.937654 7.66366 2.46596 14.7883 7.86054 18.3962C5.87695 18.3322 4.00656 17.7883 2.3749 16.8802C2.242 22.4938 6.26579 27.7457 12.0935 28.9147C10.388 29.3774 8.5201 29.4856 6.62018 29.1214C8.16079 33.9352 12.6349 37.4372 17.9409 37.5357C12.8466 41.5299 6.42822 43.3142 0 42.5562C5.36259 45.9943 11.7342 48 18.5759 48C41.0747 48 53.7859 28.9984 53.018 11.9557C55.3856 10.2453 57.4405 8.11157 59.0648 5.68253V5.68253Z" fill="#507C72"/>
</svg>
